<?xml version="1.0" encoding="UTF-8" standalone="no"?>
<!-- Created with Inkscape (http://www.inkscape.org/) -->

<svg
   xmlns:dc="http://purl.org/dc/elements/1.1/"
   xmlns:cc="http://creativecommons.org/ns#"
   xmlns:rdf="http://www.w3.org/1999/02/22-rdf-syntax-ns#"
   xmlns:svg="http://www.w3.org/2000/svg"
   xmlns="http://www.w3.org/2000/svg"
   xmlns:sodipodi="http://sodipodi.sourceforge.net/DTD/sodipodi-0.dtd"
   xmlns:inkscape="http://www.inkscape.org/namespaces/inkscape"
   width="200"
   height="200"
   viewBox="0 0 200 200"
   id="svg2"
   version="1.1"
   inkscape:version="0.91 r13725"
   sodipodi:docname="logo.svg">
  <defs
     id="defs4" />
  <sodipodi:namedview
     id="base"
     pagecolor="#ffffff"
     bordercolor="#666666"
     borderopacity="1.0"
     inkscape:pageopacity="0.0"
     inkscape:pageshadow="2"
     inkscape:zoom="2.8"
     inkscape:cx="94.495444"
     inkscape:cy="99.820849"
     inkscape:document-units="px"
     inkscape:current-layer="g4189"
     showgrid="false"
     units="px"
     inkscape:object-paths="false"
     showguides="true"
     inkscape:guide-bbox="true"
     inkscape:window-width="1366"
     inkscape:window-height="706"
     inkscape:window-x="0"
     inkscape:window-y="27"
     inkscape:window-maximized="1" />
  <metadata
     id="metadata7">
    <rdf:RDF>
      <cc:Work
         rdf:about="">
        <dc:format>image/svg+xml</dc:format>
        <dc:type
           rdf:resource="http://purl.org/dc/dcmitype/StillImage" />
        <dc:title></dc:title>
      </cc:Work>
    </rdf:RDF>
  </metadata>
  <g
     inkscape:label="Calque 1"
     inkscape:groupmode="layer"
     id="layer1"
     transform="translate(0,-852.36216)">
    <g
       id="g4189"
       transform="translate(6.8646854,-0.45425427)">
      <rect
         style="fill:#220055;fill-opacity:1;stroke:#ffffff;stroke-width:1;stroke-miterlimit:4;stroke-dasharray:none;stroke-opacity:1"
         id="rect4214"
         width="200.01021"
         height="199.50513"
         x="-6.8646855"
         y="853.31128" />
      <path
         style="fill:#6f7c91;fill-rule:evenodd;stroke:none;stroke-width:1px;stroke-linecap:butt;stroke-linejoin:miter;stroke-opacity:1"
         d="M 132.42103,975.31641 92.421025,1049.245 55.635315,974.95927 Z"
         id="path4216"
         inkscape:connector-curvature="0"
         sodipodi:nodetypes="cccc" />
      <path
         inkscape:connector-curvature="0"
         id="path4136"
         d="m 92.958984,861.49497 c -26.091801,0.0326 -47.580147,20.50849 -48.871093,46.56836 l -0.15625,0 c 0.01123,0.62545 0.04172,1.26037 0.0625,1.89063 -0.01008,0.17768 -0.01919,0.35542 -0.02734,0.5332 0.01807,1.68463 0.123031,3.3672 0.314453,5.04102 2.861845,38.54121 10.860405,85.00012 30.44029,127.28902 l 18.190569,-61.31832 18.904847,61.31832 c 20.86143,-45.05676 34.20258,-116.32565 30.07562,-134.75387 l -0.0274,0 c -1.29163,-26.07341 -22.80082,-46.5544 -48.906196,-46.56836 z"
         style="fill:#b7bec8;fill-opacity:1;stroke:none;stroke-width:1;stroke-miterlimit:4;stroke-dasharray:none;stroke-opacity:1"
         sodipodi:nodetypes="cccccccccccc" />
      <path
         id="path4167"
         transform="translate(0,852.36216)"
         d="m 92.795895,77.158362 c 26.889545,0 43.774675,-9.554573 40.418945,-29.658362 -1.5094,-9.042635 -12.54321,-16.44377 -22.10156,-16.369141 -7.43427,0.05804 -14.816083,3.881216 -18.633054,12.425623 C 88.663258,34.980508 81.91279,31.188904 74.478516,31.130859 64.920163,31.05623 54.74974,38.644639 52.376953,47.5 47.319045,66.376369 64.299209,77.158361 92.795895,77.158362 Z"
         style="fill:#ffffff;fill-rule:evenodd;stroke:none;stroke-width:1px;stroke-linecap:butt;stroke-linejoin:miter;stroke-opacity:1"
         inkscape:connector-curvature="0"
         sodipodi:nodetypes="ssscsss" />
      <circle
         r="5.8928571"
         cy="907.98718"
         cx="75.178574"
         id="path4171"
         style="fill:#000000;fill-opacity:1;stroke:#ffffff;stroke-width:1;stroke-miterlimit:4;stroke-dasharray:none;stroke-opacity:1" />
      <circle
         r="5.8928571"
         cy="907.98718"
         cx="110"
         id="path4171-6"
         style="fill:#000000;fill-opacity:1;stroke:#ffffff;stroke-width:1;stroke-miterlimit:4;stroke-dasharray:none;stroke-opacity:1" />
    </g>
  </g>
</svg>
